0
SECTION
2
HEADER
9
$ACADVER
1
AC1014
9
$DWGCODEPAGE
3
ANSI_1252
9
$INSBASE
10
0.0
20
0.0
30
0.0
9
$EXTMIN
10
0.0
20
0.0
30
0.0
9
$EXTMAX
10
300.0
20
600.0
30
0.0
9
$LUNITS
70
2
9
$MEASUREMENT
70
1
0
ENDSEC
0
SECTION
2
ENTITIES
0
LINE
8
MODELSKETCH_VISIBLE
100
AcDbEntity
100
AcDbLine
10
0
20
0
30
0.0
11
100
21
0
31
0.0
0
ARC
8
MODELSKETCH_VISIBLE
100
AcDbEntity
100
AcDbCircle
10
68.5
20
30
30
0.0
40
43.5
100
AcDbArc
50
-43.6028
51
43.6028
0
LINE
8
MODELSKETCH_VISIBLE
100
AcDbEntity
100
AcDbLine
10
100
20
60
30
0.0
11
0
21
60
31
0.0
0
LINE
8
MODELSKETCH_VISIBLE
100
AcDbEntity
100
AcDbLine
10
0
20
60
30
0.0
11
0
21
0
31
0.0
0
ENDSEC
0
EOF
