0
SECTION
2
HEADER
9
$ACADVER
1
AC1014
9
$DWGCODEPAGE
3
ANSI_1252
9
$INSBASE
10
0.0
20
0.0
30
0.0
9
$EXTMIN
10
0.0
20
0.0
30
0.0
9
$EXTMAX
10
300.0
20
600.0
30
0.0
9
$LUNITS
70
2
9
$MEASUREMENT
70
1
0
ENDSEC
0
SECTION
2
ENTITIES
0
LWPOLYLINE
8
MODELSKETCH_VISIBLE
100
AcDbEntity
100
AcDbPolyline
90
29
70
1
10
0
20
0
10
100
20
0
10
100
20
3.0
10
106
20
3.0
10
106
20
6.0
10
100
20
6.0
10
100
20
9.0
10
106
20
9.0
10
106
20
12.0
10
100
20
12.0
10
100
20
15.0
10
106
20
15.0
10
106
20
18.0
10
100
20
18.0
10
100
20
60
10
0
20
60
10
0
20
6.0
10
-6
20
6.0
10
-6
20
3.0
10
0
20
3.0
10
0
20
12.0
10
-6
20
12.0
10
-6
20
9.0
10
0
20
9.0
10
0
20
18.0
10
-6
20
18.0
10
-6
20
15.0
10
0
20
15.0
10
0
20
0
0
ENDSEC
0
EOF
