0
SECTION
2
HEADER
9
$ACADVER
1
AC1014
9
$DWGCODEPAGE
3
ANSI_1252
9
$INSBASE
10
0.0
20
0.0
30
0.0
9
$EXTMIN
10
0.0
20
0.0
30
0.0
9
$EXTMAX
10
300.0
20
600.0
30
0.0
9
$LUNITS
70
2
9
$MEASUREMENT
70
1
0
ENDSEC
0
SECTION
2
ENTITIES
0
LWPOLYLINE
8
MODELSKETCH_VISIBLE
100
AcDbEntity
100
AcDbPolyline
90
12
70
1
10
0
20
0
10
70
20
0
10
70
20
24
10
58
20
24
10
58
20
36
10
70
20
36
10
70
20
60
10
0
20
60
10
0
20
54
10
12
20
54
10
12
20
48
10
0
20
48
0
ENDSEC
0
EOF
