0
SECTION
2
HEADER
9
$ACADVER
1
AC1014
9
$DWGCODEPAGE
3
ANSI_1252
9
$INSBASE
10
0.0
20
0.0
30
0.0
9
$EXTMIN
10
0.0
20
0.0
30
0.0
9
$EXTMAX
10
300.0
20
600.0
30
0.0
9
$LUNITS
70
2
9
$MEASUREMENT
70
1
0
ENDSEC
0
SECTION
2
ENTITIES
0
LINE
8
MODELSKETCH_VISIBLE
100
AcDbEntity
100
AcDbLine
10
0
20
0
30
0.0
11
3.937
21
0
31
0.0
0
LINE
8
MODELSKETCH_VISIBLE
100
AcDbEntity
100
AcDbLine
10
3.937
20
0
30
0.0
11
3.937
21
2.362
31
0.0
0
LINE
8
MODELSKETCH_VISIBLE
100
AcDbEntity
100
AcDbLine
10
3.937
20
2.362
30
0.0
11
0
21
2.362
31
0.0
0
LINE
8
MODELSKETCH_VISIBLE
100
AcDbEntity
100
AcDbLine
10
0
20
2.362
30
0.0
11
0
21
0
31
0.0
0
ENDSEC
0
EOF
